<?xml version="1.0" encoding="utf-8"?>
<!-- Svg Vector Icons : http://www.onlinewebfonts.com/icon -->
<!DOCTYPE svg PUBLIC "-//W3C//DTD SVG 1.1//EN" "http://www.w3.org/Graphics/SVG/1.1/DTD/svg11.dtd">
<svg version="1.1" xmlns="http://www.w3.org/2000/svg" xmlns:xlink="http://www.w3.org/1999/xlink" x="0px" y="0px" viewBox="0 0 1000 1000" enable-background="new 0 0 1000 1000" xml:space="preserve">
<metadata> Svg Vector Icons : http://www.onlinewebfonts.com/icon </metadata>
<g><path d="M500,10C229.4,10,10,229.4,10,500s219.4,490,490,490c270.6,0,490-219.4,490-490S770.6,10,500,10z M500,972.5c-117.1,0-224.3-42.9-306.9-113.7c4.6-165.7,140.1-298.7,306.9-298.7c-108.4,0-196.3-87.9-196.3-196.3c0-108.4,87.9-196.3,196.3-196.3s196.3,87.9,196.3,196.3c0,108.4-87.9,196.3-196.3,196.3c166.8,0,302.3,133,306.9,298.7C724.3,929.6,617.1,972.5,500,972.5z"/></g>
</svg>